<svg xmlns="http://www.w3.org/2000/svg" viewBox="0 0 600 600" width="600" height="600"><linearGradient id="bg-gradient" x1="0%" y1="0%" x2="100%" y2="0%" gradientUnits="userSpaceOnUse"><stop offset="0%" stop-color="var(--foreground)"><animate attributeName="stop-color" values="var(--foreground);var(--foreground-50);var(--foreground-50);var(--foreground)" dur="4s" repeatCount="indefinite"></animate></stop><stop offset="50%" stop-color="var(--foreground)"><animate attributeName="stop-color" values="var(--foreground-50);var(--foreground);var(--foreground-50);var(--foreground-50)" dur="4s" repeatCount="indefinite"></animate></stop><stop offset="100%" stop-color="var(--foreground)"><animate attributeName="stop-color" values="var(--foreground-50);var(--foreground-50);var(--foreground);var(--foreground-50)" dur="4s" repeatCount="indefinite"></animate></stop></linearGradient><circle cx="0" cy="0" r="1" fill="url(#bg-gradient)" opacity="1"></circle><circle cx="30" cy="0" r="1" fill="url(#bg-gradient)" opacity="1"></circle><circle cx="60" cy="0" r="1" fill="url(#bg-gradient)" opacity="1"></circle><circle cx="90" cy="0" r="1" fill="url(#bg-gradient)" opacity="1"></circle><circle cx="120" cy="0" r="1" fill="url(#bg-gradient)" opacity="1"></circle><circle cx="150" cy="0" r="1" fill="url(#bg-gradient)" opacity="1"></circle><circle cx="180" cy="0" r="1" fill="url(#bg-gradient)" opacity="1"></circle><circle cx="210" cy="0" r="1" fill="url(#bg-gradient)" opacity="1"></circle><circle cx="240" cy="0" r="1" fill="url(#bg-gradient)" opacity="1"></circle><circle cx="270" cy="0" r="1" fill="url(#bg-gradient)" opacity="1"></circle><circle cx="300" cy="0" r="1" fill="url(#bg-gradient)" opacity="1"></circle><circle cx="330" cy="0" r="1" fill="url(#bg-gradient)" opacity="1"></circle><circle cx="360" cy="0" r="1" fill="url(#bg-gradient)" opacity="1"></circle><circle cx="390" cy="0" r="1" fill="url(#bg-gradient)" opacity="1"></circle><circle cx="420" cy="0" r="1" fill="url(#bg-gradient)" opacity="1"></circle><circle cx="450" cy="0" r="1" fill="url(#bg-gradient)" opacity="1"></circle><circle cx="480" cy="0" r="1" fill="url(#bg-gradient)" opacity="1"></circle><circle cx="510" cy="0" r="1" fill="url(#bg-gradient)" opacity="1"></circle><circle cx="540" cy="0" r="1" fill="url(#bg-gradient)" opacity="1"></circle><circle cx="570" cy="0" r="1" fill="url(#bg-gradient)" opacity="1"></circle><circle cx="600" cy="0" r="1" fill="url(#bg-gradient)" opacity="1"></circle><circle cx="0" cy="30" r="1" fill="url(#bg-gradient)" opacity="1"></circle><circle cx="30" cy="30" r="1" fill="url(#bg-gradient)" opacity="1"></circle><circle cx="60" cy="30" r="1" fill="url(#bg-gradient)" opacity="1"></circle><circle cx="90" cy="30" r="1" fill="url(#bg-gradient)" opacity="1"></circle><circle cx="120" cy="30" r="1" fill="url(#bg-gradient)" opacity="1"></circle><circle cx="150" cy="30" r="1" fill="url(#bg-gradient)" opacity="1"></circle><circle cx="180" cy="30" r="1" fill="url(#bg-gradient)" opacity="1"></circle><circle cx="210" cy="30" r="1" fill="url(#bg-gradient)" opacity="1"></circle><circle cx="240" cy="30" r="1" fill="url(#bg-gradient)" opacity="1"></circle><circle cx="270" cy="30" r="1" fill="url(#bg-gradient)" opacity="1"></circle><circle cx="300" cy="30" r="1" fill="url(#bg-gradient)" opacity="1"></circle><circle cx="330" cy="30" r="1" fill="url(#bg-gradient)" opacity="1"></circle><circle cx="360" cy="30" r="1" fill="url(#bg-gradient)" opacity="1"></circle><circle cx="390" cy="30" r="1" fill="url(#bg-gradient)" opacity="1"></circle><circle cx="420" cy="30" r="1" fill="url(#bg-gradient)" opacity="1"></circle><circle cx="450" cy="30" r="1" fill="url(#bg-gradient)" opacity="1"></circle><circle cx="480" cy="30" r="1" fill="url(#bg-gradient)" opacity="1"></circle><circle cx="510" cy="30" r="1" fill="url(#bg-gradient)" opacity="1"></circle><circle cx="540" cy="30" r="1" fill="url(#bg-gradient)" opacity="1"></circle><circle cx="570" cy="30" r="1" fill="url(#bg-gradient)" opacity="1"></circle><circle cx="600" cy="30" r="1" fill="url(#bg-gradient)" opacity="1"></circle><circle cx="0" cy="60" r="1" fill="url(#bg-gradient)" opacity="1"></circle><circle cx="30" cy="60" r="1" fill="url(#bg-gradient)" opacity="1"></circle><circle cx="60" cy="60" r="1" fill="url(#bg-gradient)" opacity="1"></circle><circle cx="90" cy="60" r="1" fill="url(#bg-gradient)" opacity="1"></circle><circle cx="120" cy="60" r="1" fill="url(#bg-gradient)" opacity="1"></circle><circle cx="150" cy="60" r="1" fill="url(#bg-gradient)" opacity="1"></circle><circle cx="180" cy="60" r="1" fill="url(#bg-gradient)" opacity="1"></circle><circle cx="210" cy="60" r="1" fill="url(#bg-gradient)" opacity="1"></circle><circle cx="240" cy="60" r="1" fill="url(#bg-gradient)" opacity="1"></circle><circle cx="270" cy="60" r="1" fill="url(#bg-gradient)" opacity="1"></circle><circle cx="300" cy="60" r="1" fill="url(#bg-gradient)" opacity="1"></circle><circle cx="330" cy="60" r="1" fill="url(#bg-gradient)" opacity="1"></circle><circle cx="360" cy="60" r="1" fill="url(#bg-gradient)" opacity="1"></circle><circle cx="390" cy="60" r="1" fill="url(#bg-gradient)" opacity="1"></circle><circle cx="420" cy="60" r="1" fill="url(#bg-gradient)" opacity="1"></circle><circle cx="450" cy="60" r="1" fill="url(#bg-gradient)" opacity="1"></circle><circle cx="480" cy="60" r="1" fill="url(#bg-gradient)" opacity="1"></circle><circle cx="510" cy="60" r="1" fill="url(#bg-gradient)" opacity="1"></circle><circle cx="540" cy="60" r="1" fill="url(#bg-gradient)" opacity="1"></circle><circle cx="570" cy="60" r="1" fill="url(#bg-gradient)" opacity="1"></circle><circle cx="600" cy="60" r="1" fill="url(#bg-gradient)" opacity="1"></circle><circle cx="0" cy="90" r="1" fill="url(#bg-gradient)" opacity="1"></circle><circle cx="30" cy="90" r="1" fill="url(#bg-gradient)" opacity="1"></circle><circle cx="60" cy="90" r="1" fill="url(#bg-gradient)" opacity="1"></circle><circle cx="90" cy="90" r="1" fill="url(#bg-gradient)" opacity="1"></circle><circle cx="120" cy="90" r="1" fill="url(#bg-gradient)" opacity="1"></circle><circle cx="150" cy="90" r="1" fill="url(#bg-gradient)" opacity="1"></circle><circle cx="180" cy="90" r="1" fill="url(#bg-gradient)" opacity="1"></circle><circle cx="210" cy="90" r="1" fill="url(#bg-gradient)" opacity="1"></circle><circle cx="240" cy="90" r="1" fill="url(#bg-gradient)" opacity="1"></circle><circle cx="270" cy="90" r="1" fill="url(#bg-gradient)" opacity="1"></circle><circle cx="300" cy="90" r="1" fill="url(#bg-gradient)" opacity="1"></circle><circle cx="330" cy="90" r="1" fill="url(#bg-gradient)" opacity="1"></circle><circle cx="360" cy="90" r="1" fill="url(#bg-gradient)" opacity="1"></circle><circle cx="390" cy="90" r="1" fill="url(#bg-gradient)" opacity="1"></circle><circle cx="420" cy="90" r="1" fill="url(#bg-gradient)" opacity="1"></circle><circle cx="450" cy="90" r="1" fill="url(#bg-gradient)" opacity="1"></circle><circle cx="480" cy="90" r="1" fill="url(#bg-gradient)" opacity="1"></circle><circle cx="510" cy="90" r="1" fill="url(#bg-gradient)" opacity="1"></circle><circle cx="540" cy="90" r="1" fill="url(#bg-gradient)" opacity="1"></circle><circle cx="570" cy="90" r="1" fill="url(#bg-gradient)" opacity="1"></circle><circle cx="600" cy="90" r="1" fill="url(#bg-gradient)" opacity="1"></circle><circle cx="0" cy="120" r="1" fill="url(#bg-gradient)" opacity="1"></circle><circle cx="30" cy="120" r="1" fill="url(#bg-gradient)" opacity="1"></circle><circle cx="60" cy="120" r="1" fill="url(#bg-gradient)" opacity="1"></circle><circle cx="90" cy="120" r="1" fill="url(#bg-gradient)" opacity="1"></circle><circle cx="120" cy="120" r="1" fill="url(#bg-gradient)" opacity="1"></circle><circle cx="150" cy="120" r="1" fill="url(#bg-gradient)" opacity="1"></circle><circle cx="180" cy="120" r="1" fill="url(#bg-gradient)" opacity="1"></circle><circle cx="210" cy="120" r="1" fill="url(#bg-gradient)" opacity="1"></circle><circle cx="240" cy="120" r="1" fill="url(#bg-gradient)" opacity="1"></circle><circle cx="270" cy="120" r="1" fill="url(#bg-gradient)" opacity="1"></circle><circle cx="300" cy="120" r="1" fill="url(#bg-gradient)" opacity="1"></circle><circle cx="330" cy="120" r="1" fill="url(#bg-gradient)" opacity="1"></circle><circle cx="360" cy="120" r="1" fill="url(#bg-gradient)" opacity="1"></circle><circle cx="390" cy="120" r="1" fill="url(#bg-gradient)" opacity="1"></circle><circle cx="420" cy="120" r="1" fill="url(#bg-gradient)" opacity="1"></circle><circle cx="450" cy="120" r="1" fill="url(#bg-gradient)" opacity="1"></circle><circle cx="480" cy="120" r="1" fill="url(#bg-gradient)" opacity="1"></circle><circle cx="510" cy="120" r="1" fill="url(#bg-gradient)" opacity="1"></circle><circle cx="540" cy="120" r="1" fill="url(#bg-gradient)" opacity="1"></circle><circle cx="570" cy="120" r="1" fill="url(#bg-gradient)" opacity="1"></circle><circle cx="600" cy="120" r="1" fill="url(#bg-gradient)" opacity="1"></circle><circle cx="0" cy="150" r="1" fill="url(#bg-gradient)" opacity="1"></circle><circle cx="30" cy="150" r="1" fill="url(#bg-gradient)" opacity="1"></circle><circle cx="60" cy="150" r="1" fill="url(#bg-gradient)" opacity="1"></circle><circle cx="90" cy="150" r="1" fill="url(#bg-gradient)" opacity="1"></circle><circle cx="120" cy="150" r="1" fill="url(#bg-gradient)" opacity="1"></circle><circle cx="150" cy="150" r="1" fill="url(#bg-gradient)" opacity="1"></circle><circle cx="180" cy="150" r="1" fill="url(#bg-gradient)" opacity="1"></circle><circle cx="210" cy="150" r="1" fill="url(#bg-gradient)" opacity="1"></circle><circle cx="240" cy="150" r="1" fill="url(#bg-gradient)" opacity="1"></circle><circle cx="270" cy="150" r="1" fill="url(#bg-gradient)" opacity="1"></circle><circle cx="300" cy="150" r="1" fill="url(#bg-gradient)" opacity="1"></circle><circle cx="330" cy="150" r="1" fill="url(#bg-gradient)" opacity="1"></circle><circle cx="360" cy="150" r="1" fill="url(#bg-gradient)" opacity="1"></circle><circle cx="390" cy="150" r="1" fill="url(#bg-gradient)" opacity="1"></circle><circle cx="420" cy="150" r="1" fill="url(#bg-gradient)" opacity="1"></circle><circle cx="450" cy="150" r="1" fill="url(#bg-gradient)" opacity="1"></circle><circle cx="480" cy="150" r="1" fill="url(#bg-gradient)" opacity="1"></circle><circle cx="510" cy="150" r="1" fill="url(#bg-gradient)" opacity="1"></circle><circle cx="540" cy="150" r="1" fill="url(#bg-gradient)" opacity="1"></circle><circle cx="570" cy="150" r="1" fill="url(#bg-gradient)" opacity="1"></circle><circle cx="600" cy="150" r="1" fill="url(#bg-gradient)" opacity="1"></circle><circle cx="0" cy="180" r="1" fill="url(#bg-gradient)" opacity="1"></circle><circle cx="30" cy="180" r="1" fill="url(#bg-gradient)" opacity="1"></circle><circle cx="60" cy="180" r="1" fill="url(#bg-gradient)" opacity="1"></circle><circle cx="90" cy="180" r="1" fill="url(#bg-gradient)" opacity="1"></circle><circle cx="120" cy="180" r="1" fill="url(#bg-gradient)" opacity="1"></circle><circle cx="150" cy="180" r="1" fill="url(#bg-gradient)" opacity="1"></circle><circle cx="180" cy="180" r="1" fill="url(#bg-gradient)" opacity="1"></circle><circle cx="210" cy="180" r="1" fill="url(#bg-gradient)" opacity="1"></circle><circle cx="240" cy="180" r="1" fill="url(#bg-gradient)" opacity="1"></circle><circle cx="270" cy="180" r="1" fill="url(#bg-gradient)" opacity="1"></circle><circle cx="300" cy="180" r="1" fill="url(#bg-gradient)" opacity="1"></circle><circle cx="330" cy="180" r="1" fill="url(#bg-gradient)" opacity="1"></circle><circle cx="360" cy="180" r="1" fill="url(#bg-gradient)" opacity="1"></circle><circle cx="390" cy="180" r="1" fill="url(#bg-gradient)" opacity="1"></circle><circle cx="420" cy="180" r="1" fill="url(#bg-gradient)" opacity="1"></circle><circle cx="450" cy="180" r="1" fill="url(#bg-gradient)" opacity="1"></circle><circle cx="480" cy="180" r="1" fill="url(#bg-gradient)" opacity="1"></circle><circle cx="510" cy="180" r="1" fill="url(#bg-gradient)" opacity="1"></circle><circle cx="540" cy="180" r="1" fill="url(#bg-gradient)" opacity="1"></circle><circle cx="570" cy="180" r="1" fill="url(#bg-gradient)" opacity="1"></circle><circle cx="600" cy="180" r="1" fill="url(#bg-gradient)" opacity="1"></circle><circle cx="0" cy="210" r="1" fill="url(#bg-gradient)" opacity="1"></circle><circle cx="30" cy="210" r="1" fill="url(#bg-gradient)" opacity="1"></circle><circle cx="60" cy="210" r="1" fill="url(#bg-gradient)" opacity="1"></circle><circle cx="90" cy="210" r="1" fill="url(#bg-gradient)" opacity="1"></circle><circle cx="120" cy="210" r="1" fill="url(#bg-gradient)" opacity="1"></circle><circle cx="150" cy="210" r="1" fill="url(#bg-gradient)" opacity="1"></circle><circle cx="180" cy="210" r="1" fill="url(#bg-gradient)" opacity="1"></circle><circle cx="210" cy="210" r="1" fill="url(#bg-gradient)" opacity="1"></circle><circle cx="240" cy="210" r="1" fill="url(#bg-gradient)" opacity="1"></circle><circle cx="270" cy="210" r="1" fill="url(#bg-gradient)" opacity="1"></circle><circle cx="300" cy="210" r="1" fill="url(#bg-gradient)" opacity="1"></circle><circle cx="330" cy="210" r="1" fill="url(#bg-gradient)" opacity="1"></circle><circle cx="360" cy="210" r="1" fill="url(#bg-gradient)" opacity="1"></circle><circle cx="390" cy="210" r="1" fill="url(#bg-gradient)" opacity="1"></circle><circle cx="420" cy="210" r="1" fill="url(#bg-gradient)" opacity="1"></circle><circle cx="450" cy="210" r="1" fill="url(#bg-gradient)" opacity="1"></circle><circle cx="480" cy="210" r="1" fill="url(#bg-gradient)" opacity="1"></circle><circle cx="510" cy="210" r="1" fill="url(#bg-gradient)" opacity="1"></circle><circle cx="540" cy="210" r="1" fill="url(#bg-gradient)" opacity="1"></circle><circle cx="570" cy="210" r="1" fill="url(#bg-gradient)" opacity="1"></circle><circle cx="600" cy="210" r="1" fill="url(#bg-gradient)" opacity="1"></circle><circle cx="0" cy="240" r="1" fill="url(#bg-gradient)" opacity="1"></circle><circle cx="30" cy="240" r="1" fill="url(#bg-gradient)" opacity="1"></circle><circle cx="60" cy="240" r="1" fill="url(#bg-gradient)" opacity="1"></circle><circle cx="90" cy="240" r="1" fill="url(#bg-gradient)" opacity="1"></circle><circle cx="120" cy="240" r="1" fill="url(#bg-gradient)" opacity="1"></circle><circle cx="150" cy="240" r="1" fill="url(#bg-gradient)" opacity="1"></circle><circle cx="180" cy="240" r="1" fill="url(#bg-gradient)" opacity="1"></circle><circle cx="210" cy="240" r="1" fill="url(#bg-gradient)" opacity="1"></circle><circle cx="240" cy="240" r="1" fill="url(#bg-gradient)" opacity="1"></circle><circle cx="270" cy="240" r="1" fill="url(#bg-gradient)" opacity="1"></circle><circle cx="300" cy="240" r="1" fill="url(#bg-gradient)" opacity="1"></circle><circle cx="330" cy="240" r="1" fill="url(#bg-gradient)" opacity="1"></circle><circle cx="360" cy="240" r="1" fill="url(#bg-gradient)" opacity="1"></circle><circle cx="390" cy="240" r="1" fill="url(#bg-gradient)" opacity="1"></circle><circle cx="420" cy="240" r="1" fill="url(#bg-gradient)" opacity="1"></circle><circle cx="450" cy="240" r="1" fill="url(#bg-gradient)" opacity="1"></circle><circle cx="480" cy="240" r="1" fill="url(#bg-gradient)" opacity="1"></circle><circle cx="510" cy="240" r="1" fill="url(#bg-gradient)" opacity="1"></circle><circle cx="540" cy="240" r="1" fill="url(#bg-gradient)" opacity="1"></circle><circle cx="570" cy="240" r="1" fill="url(#bg-gradient)" opacity="1"></circle><circle cx="600" cy="240" r="1" fill="url(#bg-gradient)" opacity="1"></circle><circle cx="0" cy="270" r="1" fill="url(#bg-gradient)" opacity="1"></circle><circle cx="30" cy="270" r="1" fill="url(#bg-gradient)" opacity="1"></circle><circle cx="60" cy="270" r="1" fill="url(#bg-gradient)" opacity="1"></circle><circle cx="90" cy="270" r="1" fill="url(#bg-gradient)" opacity="1"></circle><circle cx="120" cy="270" r="1" fill="url(#bg-gradient)" opacity="1"></circle><circle cx="150" cy="270" r="1" fill="url(#bg-gradient)" opacity="1"></circle><circle cx="180" cy="270" r="1" fill="url(#bg-gradient)" opacity="1"></circle><circle cx="210" cy="270" r="1" fill="url(#bg-gradient)" opacity="1"></circle><circle cx="240" cy="270" r="1" fill="url(#bg-gradient)" opacity="1"></circle><circle cx="270" cy="270" r="1" fill="url(#bg-gradient)" opacity="1"></circle><circle cx="300" cy="270" r="1" fill="url(#bg-gradient)" opacity="1"></circle><circle cx="330" cy="270" r="1" fill="url(#bg-gradient)" opacity="1"></circle><circle cx="360" cy="270" r="1" fill="url(#bg-gradient)" opacity="1"></circle><circle cx="390" cy="270" r="1" fill="url(#bg-gradient)" opacity="1"></circle><circle cx="420" cy="270" r="1" fill="url(#bg-gradient)" opacity="1"></circle><circle cx="450" cy="270" r="1" fill="url(#bg-gradient)" opacity="1"></circle><circle cx="480" cy="270" r="1" fill="url(#bg-gradient)" opacity="1"></circle><circle cx="510" cy="270" r="1" fill="url(#bg-gradient)" opacity="1"></circle><circle cx="540" cy="270" r="1" fill="url(#bg-gradient)" opacity="1"></circle><circle cx="570" cy="270" r="1" fill="url(#bg-gradient)" opacity="1"></circle><circle cx="600" cy="270" r="1" fill="url(#bg-gradient)" opacity="1"></circle><circle cx="0" cy="300" r="1" fill="url(#bg-gradient)" opacity="1"></circle><circle cx="30" cy="300" r="1" fill="url(#bg-gradient)" opacity="1"></circle><circle cx="60" cy="300" r="1" fill="url(#bg-gradient)" opacity="1"></circle><circle cx="90" cy="300" r="1" fill="url(#bg-gradient)" opacity="1"></circle><circle cx="120" cy="300" r="1" fill="url(#bg-gradient)" opacity="1"></circle><circle cx="150" cy="300" r="1" fill="url(#bg-gradient)" opacity="1"></circle><circle cx="180" cy="300" r="1" fill="url(#bg-gradient)" opacity="1"></circle><circle cx="210" cy="300" r="1" fill="url(#bg-gradient)" opacity="1"></circle><circle cx="240" cy="300" r="1" fill="url(#bg-gradient)" opacity="1"></circle><circle cx="270" cy="300" r="1" fill="url(#bg-gradient)" opacity="1"></circle><circle cx="300" cy="300" r="1" fill="url(#bg-gradient)" opacity="1"></circle><circle cx="330" cy="300" r="1" fill="url(#bg-gradient)" opacity="1"></circle><circle cx="360" cy="300" r="1" fill="url(#bg-gradient)" opacity="1"></circle><circle cx="390" cy="300" r="1" fill="url(#bg-gradient)" opacity="1"></circle><circle cx="420" cy="300" r="1" fill="url(#bg-gradient)" opacity="1"></circle><circle cx="450" cy="300" r="1" fill="url(#bg-gradient)" opacity="1"></circle><circle cx="480" cy="300" r="1" fill="url(#bg-gradient)" opacity="1"></circle><circle cx="510" cy="300" r="1" fill="url(#bg-gradient)" opacity="1"></circle><circle cx="540" cy="300" r="1" fill="url(#bg-gradient)" opacity="1"></circle><circle cx="570" cy="300" r="1" fill="url(#bg-gradient)" opacity="1"></circle><circle cx="600" cy="300" r="1" fill="url(#bg-gradient)" opacity="1"></circle><circle cx="0" cy="330" r="1" fill="url(#bg-gradient)" opacity="1"></circle><circle cx="30" cy="330" r="1" fill="url(#bg-gradient)" opacity="1"></circle><circle cx="60" cy="330" r="1" fill="url(#bg-gradient)" opacity="1"></circle><circle cx="90" cy="330" r="1" fill="url(#bg-gradient)" opacity="1"></circle><circle cx="120" cy="330" r="1" fill="url(#bg-gradient)" opacity="1"></circle><circle cx="150" cy="330" r="1" fill="url(#bg-gradient)" opacity="1"></circle><circle cx="180" cy="330" r="1" fill="url(#bg-gradient)" opacity="1"></circle><circle cx="210" cy="330" r="1" fill="url(#bg-gradient)" opacity="1"></circle><circle cx="240" cy="330" r="1" fill="url(#bg-gradient)" opacity="1"></circle><circle cx="270" cy="330" r="1" fill="url(#bg-gradient)" opacity="1"></circle><circle cx="300" cy="330" r="1" fill="url(#bg-gradient)" opacity="1"></circle><circle cx="330" cy="330" r="1" fill="url(#bg-gradient)" opacity="1"></circle><circle cx="360" cy="330" r="1" fill="url(#bg-gradient)" opacity="1"></circle><circle cx="390" cy="330" r="1" fill="url(#bg-gradient)" opacity="1"></circle><circle cx="420" cy="330" r="1" fill="url(#bg-gradient)" opacity="1"></circle><circle cx="450" cy="330" r="1" fill="url(#bg-gradient)" opacity="1"></circle><circle cx="480" cy="330" r="1" fill="url(#bg-gradient)" opacity="1"></circle><circle cx="510" cy="330" r="1" fill="url(#bg-gradient)" opacity="1"></circle><circle cx="540" cy="330" r="1" fill="url(#bg-gradient)" opacity="1"></circle><circle cx="570" cy="330" r="1" fill="url(#bg-gradient)" opacity="1"></circle><circle cx="600" cy="330" r="1" fill="url(#bg-gradient)" opacity="1"></circle><circle cx="0" cy="360" r="1" fill="url(#bg-gradient)" opacity="1"></circle><circle cx="30" cy="360" r="1" fill="url(#bg-gradient)" opacity="1"></circle><circle cx="60" cy="360" r="1" fill="url(#bg-gradient)" opacity="1"></circle><circle cx="90" cy="360" r="1" fill="url(#bg-gradient)" opacity="1"></circle><circle cx="120" cy="360" r="1" fill="url(#bg-gradient)" opacity="1"></circle><circle cx="150" cy="360" r="1" fill="url(#bg-gradient)" opacity="1"></circle><circle cx="180" cy="360" r="1" fill="url(#bg-gradient)" opacity="1"></circle><circle cx="210" cy="360" r="1" fill="url(#bg-gradient)" opacity="1"></circle><circle cx="240" cy="360" r="1" fill="url(#bg-gradient)" opacity="1"></circle><circle cx="270" cy="360" r="1" fill="url(#bg-gradient)" opacity="1"></circle><circle cx="300" cy="360" r="1" fill="url(#bg-gradient)" opacity="1"></circle><circle cx="330" cy="360" r="1" fill="url(#bg-gradient)" opacity="1"></circle><circle cx="360" cy="360" r="1" fill="url(#bg-gradient)" opacity="1"></circle><circle cx="390" cy="360" r="1" fill="url(#bg-gradient)" opacity="1"></circle><circle cx="420" cy="360" r="1" fill="url(#bg-gradient)" opacity="1"></circle><circle cx="450" cy="360" r="1" fill="url(#bg-gradient)" opacity="1"></circle><circle cx="480" cy="360" r="1" fill="url(#bg-gradient)" opacity="1"></circle><circle cx="510" cy="360" r="1" fill="url(#bg-gradient)" opacity="1"></circle><circle cx="540" cy="360" r="1" fill="url(#bg-gradient)" opacity="1"></circle><circle cx="570" cy="360" r="1" fill="url(#bg-gradient)" opacity="1"></circle><circle cx="600" cy="360" r="1" fill="url(#bg-gradient)" opacity="1"></circle><circle cx="0" cy="390" r="1" fill="url(#bg-gradient)" opacity="1"></circle><circle cx="30" cy="390" r="1" fill="url(#bg-gradient)" opacity="1"></circle><circle cx="60" cy="390" r="1" fill="url(#bg-gradient)" opacity="1"></circle><circle cx="90" cy="390" r="1" fill="url(#bg-gradient)" opacity="1"></circle><circle cx="120" cy="390" r="1" fill="url(#bg-gradient)" opacity="1"></circle><circle cx="150" cy="390" r="1" fill="url(#bg-gradient)" opacity="1"></circle><circle cx="180" cy="390" r="1" fill="url(#bg-gradient)" opacity="1"></circle><circle cx="210" cy="390" r="1" fill="url(#bg-gradient)" opacity="1"></circle><circle cx="240" cy="390" r="1" fill="url(#bg-gradient)" opacity="1"></circle><circle cx="270" cy="390" r="1" fill="url(#bg-gradient)" opacity="1"></circle><circle cx="300" cy="390" r="1" fill="url(#bg-gradient)" opacity="1"></circle><circle cx="330" cy="390" r="1" fill="url(#bg-gradient)" opacity="1"></circle><circle cx="360" cy="390" r="1" fill="url(#bg-gradient)" opacity="1"></circle><circle cx="390" cy="390" r="1" fill="url(#bg-gradient)" opacity="1"></circle><circle cx="420" cy="390" r="1" fill="url(#bg-gradient)" opacity="1"></circle><circle cx="450" cy="390" r="1" fill="url(#bg-gradient)" opacity="1"></circle><circle cx="480" cy="390" r="1" fill="url(#bg-gradient)" opacity="1"></circle><circle cx="510" cy="390" r="1" fill="url(#bg-gradient)" opacity="1"></circle><circle cx="540" cy="390" r="1" fill="url(#bg-gradient)" opacity="1"></circle><circle cx="570" cy="390" r="1" fill="url(#bg-gradient)" opacity="1"></circle><circle cx="600" cy="390" r="1" fill="url(#bg-gradient)" opacity="1"></circle><circle cx="0" cy="420" r="1" fill="url(#bg-gradient)" opacity="1"></circle><circle cx="30" cy="420" r="1" fill="url(#bg-gradient)" opacity="1"></circle><circle cx="60" cy="420" r="1" fill="url(#bg-gradient)" opacity="1"></circle><circle cx="90" cy="420" r="1" fill="url(#bg-gradient)" opacity="1"></circle><circle cx="120" cy="420" r="1" fill="url(#bg-gradient)" opacity="1"></circle><circle cx="150" cy="420" r="1" fill="url(#bg-gradient)" opacity="1"></circle><circle cx="180" cy="420" r="1" fill="url(#bg-gradient)" opacity="1"></circle><circle cx="210" cy="420" r="1" fill="url(#bg-gradient)" opacity="1"></circle><circle cx="240" cy="420" r="1" fill="url(#bg-gradient)" opacity="1"></circle><circle cx="270" cy="420" r="1" fill="url(#bg-gradient)" opacity="1"></circle><circle cx="300" cy="420" r="1" fill="url(#bg-gradient)" opacity="1"></circle><circle cx="330" cy="420" r="1" fill="url(#bg-gradient)" opacity="1"></circle><circle cx="360" cy="420" r="1" fill="url(#bg-gradient)" opacity="1"></circle><circle cx="390" cy="420" r="1" fill="url(#bg-gradient)" opacity="1"></circle><circle cx="420" cy="420" r="1" fill="url(#bg-gradient)" opacity="1"></circle><circle cx="450" cy="420" r="1" fill="url(#bg-gradient)" opacity="1"></circle><circle cx="480" cy="420" r="1" fill="url(#bg-gradient)" opacity="1"></circle><circle cx="510" cy="420" r="1" fill="url(#bg-gradient)" opacity="1"></circle><circle cx="540" cy="420" r="1" fill="url(#bg-gradient)" opacity="1"></circle><circle cx="570" cy="420" r="1" fill="url(#bg-gradient)" opacity="1"></circle><circle cx="600" cy="420" r="1" fill="url(#bg-gradient)" opacity="1"></circle><circle cx="0" cy="450" r="1" fill="url(#bg-gradient)" opacity="1"></circle><circle cx="30" cy="450" r="1" fill="url(#bg-gradient)" opacity="1"></circle><circle cx="60" cy="450" r="1" fill="url(#bg-gradient)" opacity="1"></circle><circle cx="90" cy="450" r="1" fill="url(#bg-gradient)" opacity="1"></circle><circle cx="120" cy="450" r="1" fill="url(#bg-gradient)" opacity="1"></circle><circle cx="150" cy="450" r="1" fill="url(#bg-gradient)" opacity="1"></circle><circle cx="180" cy="450" r="1" fill="url(#bg-gradient)" opacity="1"></circle><circle cx="210" cy="450" r="1" fill="url(#bg-gradient)" opacity="1"></circle><circle cx="240" cy="450" r="1" fill="url(#bg-gradient)" opacity="1"></circle><circle cx="270" cy="450" r="1" fill="url(#bg-gradient)" opacity="1"></circle><circle cx="300" cy="450" r="1" fill="url(#bg-gradient)" opacity="1"></circle><circle cx="330" cy="450" r="1" fill="url(#bg-gradient)" opacity="1"></circle><circle cx="360" cy="450" r="1" fill="url(#bg-gradient)" opacity="1"></circle><circle cx="390" cy="450" r="1" fill="url(#bg-gradient)" opacity="1"></circle><circle cx="420" cy="450" r="1" fill="url(#bg-gradient)" opacity="1"></circle><circle cx="450" cy="450" r="1" fill="url(#bg-gradient)" opacity="1"></circle><circle cx="480" cy="450" r="1" fill="url(#bg-gradient)" opacity="1"></circle><circle cx="510" cy="450" r="1" fill="url(#bg-gradient)" opacity="1"></circle><circle cx="540" cy="450" r="1" fill="url(#bg-gradient)" opacity="1"></circle><circle cx="570" cy="450" r="1" fill="url(#bg-gradient)" opacity="1"></circle><circle cx="600" cy="450" r="1" fill="url(#bg-gradient)" opacity="1"></circle><circle cx="0" cy="480" r="1" fill="url(#bg-gradient)" opacity="1"></circle><circle cx="30" cy="480" r="1" fill="url(#bg-gradient)" opacity="1"></circle><circle cx="60" cy="480" r="1" fill="url(#bg-gradient)" opacity="1"></circle><circle cx="90" cy="480" r="1" fill="url(#bg-gradient)" opacity="1"></circle><circle cx="120" cy="480" r="1" fill="url(#bg-gradient)" opacity="1"></circle><circle cx="150" cy="480" r="1" fill="url(#bg-gradient)" opacity="1"></circle><circle cx="180" cy="480" r="1" fill="url(#bg-gradient)" opacity="1"></circle><circle cx="210" cy="480" r="1" fill="url(#bg-gradient)" opacity="1"></circle><circle cx="240" cy="480" r="1" fill="url(#bg-gradient)" opacity="1"></circle><circle cx="270" cy="480" r="1" fill="url(#bg-gradient)" opacity="1"></circle><circle cx="300" cy="480" r="1" fill="url(#bg-gradient)" opacity="1"></circle><circle cx="330" cy="480" r="1" fill="url(#bg-gradient)" opacity="1"></circle><circle cx="360" cy="480" r="1" fill="url(#bg-gradient)" opacity="1"></circle><circle cx="390" cy="480" r="1" fill="url(#bg-gradient)" opacity="1"></circle><circle cx="420" cy="480" r="1" fill="url(#bg-gradient)" opacity="1"></circle><circle cx="450" cy="480" r="1" fill="url(#bg-gradient)" opacity="1"></circle><circle cx="480" cy="480" r="1" fill="url(#bg-gradient)" opacity="1"></circle><circle cx="510" cy="480" r="1" fill="url(#bg-gradient)" opacity="1"></circle><circle cx="540" cy="480" r="1" fill="url(#bg-gradient)" opacity="1"></circle><circle cx="570" cy="480" r="1" fill="url(#bg-gradient)" opacity="1"></circle><circle cx="600" cy="480" r="1" fill="url(#bg-gradient)" opacity="1"></circle><circle cx="0" cy="510" r="1" fill="url(#bg-gradient)" opacity="1"></circle><circle cx="30" cy="510" r="1" fill="url(#bg-gradient)" opacity="1"></circle><circle cx="60" cy="510" r="1" fill="url(#bg-gradient)" opacity="1"></circle><circle cx="90" cy="510" r="1" fill="url(#bg-gradient)" opacity="1"></circle><circle cx="120" cy="510" r="1" fill="url(#bg-gradient)" opacity="1"></circle><circle cx="150" cy="510" r="1" fill="url(#bg-gradient)" opacity="1"></circle><circle cx="180" cy="510" r="1" fill="url(#bg-gradient)" opacity="1"></circle><circle cx="210" cy="510" r="1" fill="url(#bg-gradient)" opacity="1"></circle><circle cx="240" cy="510" r="1" fill="url(#bg-gradient)" opacity="1"></circle><circle cx="270" cy="510" r="1" fill="url(#bg-gradient)" opacity="1"></circle><circle cx="300" cy="510" r="1" fill="url(#bg-gradient)" opacity="1"></circle><circle cx="330" cy="510" r="1" fill="url(#bg-gradient)" opacity="1"></circle><circle cx="360" cy="510" r="1" fill="url(#bg-gradient)" opacity="1"></circle><circle cx="390" cy="510" r="1" fill="url(#bg-gradient)" opacity="1"></circle><circle cx="420" cy="510" r="1" fill="url(#bg-gradient)" opacity="1"></circle><circle cx="450" cy="510" r="1" fill="url(#bg-gradient)" opacity="1"></circle><circle cx="480" cy="510" r="1" fill="url(#bg-gradient)" opacity="1"></circle><circle cx="510" cy="510" r="1" fill="url(#bg-gradient)" opacity="1"></circle><circle cx="540" cy="510" r="1" fill="url(#bg-gradient)" opacity="1"></circle><circle cx="570" cy="510" r="1" fill="url(#bg-gradient)" opacity="1"></circle><circle cx="600" cy="510" r="1" fill="url(#bg-gradient)" opacity="1"></circle><circle cx="0" cy="540" r="1" fill="url(#bg-gradient)" opacity="1"></circle><circle cx="30" cy="540" r="1" fill="url(#bg-gradient)" opacity="1"></circle><circle cx="60" cy="540" r="1" fill="url(#bg-gradient)" opacity="1"></circle><circle cx="90" cy="540" r="1" fill="url(#bg-gradient)" opacity="1"></circle><circle cx="120" cy="540" r="1" fill="url(#bg-gradient)" opacity="1"></circle><circle cx="150" cy="540" r="1" fill="url(#bg-gradient)" opacity="1"></circle><circle cx="180" cy="540" r="1" fill="url(#bg-gradient)" opacity="1"></circle><circle cx="210" cy="540" r="1" fill="url(#bg-gradient)" opacity="1"></circle><circle cx="240" cy="540" r="1" fill="url(#bg-gradient)" opacity="1"></circle><circle cx="270" cy="540" r="1" fill="url(#bg-gradient)" opacity="1"></circle><circle cx="300" cy="540" r="1" fill="url(#bg-gradient)" opacity="1"></circle><circle cx="330" cy="540" r="1" fill="url(#bg-gradient)" opacity="1"></circle><circle cx="360" cy="540" r="1" fill="url(#bg-gradient)" opacity="1"></circle><circle cx="390" cy="540" r="1" fill="url(#bg-gradient)" opacity="1"></circle><circle cx="420" cy="540" r="1" fill="url(#bg-gradient)" opacity="1"></circle><circle cx="450" cy="540" r="1" fill="url(#bg-gradient)" opacity="1"></circle><circle cx="480" cy="540" r="1" fill="url(#bg-gradient)" opacity="1"></circle><circle cx="510" cy="540" r="1" fill="url(#bg-gradient)" opacity="1"></circle><circle cx="540" cy="540" r="1" fill="url(#bg-gradient)" opacity="1"></circle><circle cx="570" cy="540" r="1" fill="url(#bg-gradient)" opacity="1"></circle><circle cx="600" cy="540" r="1" fill="url(#bg-gradient)" opacity="1"></circle><circle cx="0" cy="570" r="1" fill="url(#bg-gradient)" opacity="1"></circle><circle cx="30" cy="570" r="1" fill="url(#bg-gradient)" opacity="1"></circle><circle cx="60" cy="570" r="1" fill="url(#bg-gradient)" opacity="1"></circle><circle cx="90" cy="570" r="1" fill="url(#bg-gradient)" opacity="1"></circle><circle cx="120" cy="570" r="1" fill="url(#bg-gradient)" opacity="1"></circle><circle cx="150" cy="570" r="1" fill="url(#bg-gradient)" opacity="1"></circle><circle cx="180" cy="570" r="1" fill="url(#bg-gradient)" opacity="1"></circle><circle cx="210" cy="570" r="1" fill="url(#bg-gradient)" opacity="1"></circle><circle cx="240" cy="570" r="1" fill="url(#bg-gradient)" opacity="1"></circle><circle cx="270" cy="570" r="1" fill="url(#bg-gradient)" opacity="1"></circle><circle cx="300" cy="570" r="1" fill="url(#bg-gradient)" opacity="1"></circle><circle cx="330" cy="570" r="1" fill="url(#bg-gradient)" opacity="1"></circle><circle cx="360" cy="570" r="1" fill="url(#bg-gradient)" opacity="1"></circle><circle cx="390" cy="570" r="1" fill="url(#bg-gradient)" opacity="1"></circle><circle cx="420" cy="570" r="1" fill="url(#bg-gradient)" opacity="1"></circle><circle cx="450" cy="570" r="1" fill="url(#bg-gradient)" opacity="1"></circle><circle cx="480" cy="570" r="1" fill="url(#bg-gradient)" opacity="1"></circle><circle cx="510" cy="570" r="1" fill="url(#bg-gradient)" opacity="1"></circle><circle cx="540" cy="570" r="1" fill="url(#bg-gradient)" opacity="1"></circle><circle cx="570" cy="570" r="1" fill="url(#bg-gradient)" opacity="1"></circle><circle cx="600" cy="570" r="1" fill="url(#bg-gradient)" opacity="1"></circle><circle cx="0" cy="600" r="1" fill="url(#bg-gradient)" opacity="1"></circle><circle cx="30" cy="600" r="1" fill="url(#bg-gradient)" opacity="1"></circle><circle cx="60" cy="600" r="1" fill="url(#bg-gradient)" opacity="1"></circle><circle cx="90" cy="600" r="1" fill="url(#bg-gradient)" opacity="1"></circle><circle cx="120" cy="600" r="1" fill="url(#bg-gradient)" opacity="1"></circle><circle cx="150" cy="600" r="1" fill="url(#bg-gradient)" opacity="1"></circle><circle cx="180" cy="600" r="1" fill="url(#bg-gradient)" opacity="1"></circle><circle cx="210" cy="600" r="1" fill="url(#bg-gradient)" opacity="1"></circle><circle cx="240" cy="600" r="1" fill="url(#bg-gradient)" opacity="1"></circle><circle cx="270" cy="600" r="1" fill="url(#bg-gradient)" opacity="1"></circle><circle cx="300" cy="600" r="1" fill="url(#bg-gradient)" opacity="1"></circle><circle cx="330" cy="600" r="1" fill="url(#bg-gradient)" opacity="1"></circle><circle cx="360" cy="600" r="1" fill="url(#bg-gradient)" opacity="1"></circle><circle cx="390" cy="600" r="1" fill="url(#bg-gradient)" opacity="1"></circle><circle cx="420" cy="600" r="1" fill="url(#bg-gradient)" opacity="1"></circle><circle cx="450" cy="600" r="1" fill="url(#bg-gradient)" opacity="1"></circle><circle cx="480" cy="600" r="1" fill="url(#bg-gradient)" opacity="1"></circle><circle cx="510" cy="600" r="1" fill="url(#bg-gradient)" opacity="1"></circle><circle cx="540" cy="600" r="1" fill="url(#bg-gradient)" opacity="1"></circle><circle cx="570" cy="600" r="1" fill="url(#bg-gradient)" opacity="1"></circle><circle cx="600" cy="600" r="1" fill="url(#bg-gradient)" opacity="1"></circle><path d="M 198.5 284.99999999999994 L 198.5 269.99999999999994 Q 198.5 264.99999999999994 193.5 264.99999999999994 L 92.5 264.99999999999994 Q 87.5 264.99999999999994 87.5 259.99999999999994 L 87.5 126 Q 87.5 120.99999999999999 87.5 115.99999999999999 L 87.5 100.99999999999999" fill="none" stroke-width="1" stroke="url(#bg-gradient)" stroke-linejoin="round" stroke-dasharray="6"></path><path d="M 236.5 100.99999999999999 L 236.5 115.99999999999999 Q 236.5 120.99999999999999 231.5 120.99999999999999 L 203.5 120.99999999999999 Q 198.5 120.99999999999999 198.5 125.99999999999999 L 198.5 259.99999999999994 Q 198.5 264.99999999999994 198.5 269.99999999999994 L 198.5 284.99999999999994" fill="none" stroke-width="1" stroke="url(#bg-gradient)" stroke-linejoin="round" stroke-dasharray="6"></path><path d="M 452.99999999999994 68.5 L 437.99999999999994 68.5 Q 432.99999999999994 68.5 427.99999999999994 68.5 L 294 68.5 Q 289 68.5 289 68.49999999999999 L 289 68.5 Q 289 68.49999999999999 284 68.49999999999999 L 269 68.49999999999999" fill="none" stroke-width="1" stroke="url(#bg-gradient)" stroke-linejoin="round" stroke-dasharray="6"></path><path d="M 320.49999999999994 288 L 320.49999999999994 273 Q 320.49999999999994 268 325.49999999999994 268 L 480.49999999999994 268 Q 485.49999999999994 268 485.49999999999994 263 L 485.49999999999994 126 Q 485.49999999999994 121 485.49999999999994 116 L 485.49999999999994 101" fill="none" stroke-width="1" stroke="url(#bg-gradient)" stroke-linejoin="round" stroke-dasharray="6"></path><path d="M 498 350.5 L 483 350.5 Q 478 350.5 473 350.5 L 377.99999999999994 350.5 Q 372.99999999999994 350.5 372.99999999999994 345.5 L 372.99999999999994 325.5 Q 372.99999999999994 320.5 367.99999999999994 320.5 L 352.99999999999994 320.5" fill="none" stroke-width="1" stroke="url(#bg-gradient)" stroke-linejoin="round" stroke-dasharray="6"></path><path d="M 425.50000000000006 484.99999999999994 L 425.50000000000006 469.99999999999994 Q 425.50000000000006 464.99999999999994 430.50000000000006 464.99999999999994 L 525.5 464.99999999999994 Q 530.5 464.99999999999994 530.5 459.99999999999994 L 530.5 408 Q 530.5 403 530.5 398 L 530.5 383" fill="none" stroke-width="1" stroke="url(#bg-gradient)" stroke-linejoin="round" stroke-dasharray="6"></path><path d="M 159 426.5 L 174 426.5 Q 179 426.5 184 426.5 L 368.00000000000006 426.5 Q 373.00000000000006 426.5 373.00000000000006 431.5 L 373.00000000000006 512.5 Q 373.00000000000006 517.5 378.00000000000006 517.5 L 393.00000000000006 517.5" fill="none" stroke-width="1" stroke="url(#bg-gradient)" stroke-linejoin="round" stroke-dasharray="6"></path><g style="cursor: grab;"><rect x="55.00000000000001" y="35.999999999999986" width="65" height="65" fill="var(--background)" stroke="url(#bg-gradient)" rx="6"></rect></g><g style="cursor: grab;"><rect x="166" y="284.99999999999994" width="65" height="65" fill="var(--background)" stroke="url(#bg-gradient)" rx="6"></rect></g><g style="cursor: grab;"><rect x="204" y="35.999999999999986" width="65" height="65" fill="var(--background)" stroke="url(#bg-gradient)" rx="6"></rect></g><g style="cursor: grab;"><rect x="452.99999999999994" y="36" width="65" height="65" fill="var(--background)" stroke="url(#bg-gradient)" rx="6"></rect></g><g style="cursor: grab;"><rect x="287.99999999999994" y="288" width="65" height="65" fill="var(--background)" stroke="url(#bg-gradient)" rx="6"></rect></g><g style="cursor: grab;"><rect x="498" y="318" width="65" height="65" fill="var(--background)" stroke="url(#bg-gradient)" rx="6"></rect></g><g style="cursor: grab;"><rect x="393.00000000000006" y="484.99999999999994" width="65" height="65" fill="var(--background)" stroke="url(#bg-gradient)" rx="6"></rect></g><g style="cursor: grab;"><rect x="94" y="394" width="65" height="65" fill="var(--background)" stroke="url(#bg-gradient)" rx="6"></rect></g></svg>